<svg xmlns="http://www.w3.org/2000/svg" version="1.1" xmlns:xlink="http://www.w3.org/1999/xlink" width="512" height="512" x="0" y="0" viewBox="0 0 512 512" style="enable-background:new 0 0 512 512" xml:space="preserve" class=""><g><path fill="#fec7dc" d="M357.3 140.5c-14.4 21-36 52-50.3 72.8 4.9-20.7 12.2-51.9 17.1-72.8H311c-13.1 0-23.6-10.6-23.6-23.7V24.7C287.4 11.6 298 1 311 1h44.3c-13.1 0-23.7 10.6-23.7 23.7v92.1c-.1 13.9 11.9 24.7 25.7 23.7z" opacity="1" data-original="#825bbd" class=""></path><path fill="#6cf694" d="M505.7 24.7v92.1c0 13.1-10.6 23.7-23.7 23.7H355.3c-13.1 0-23.7-10.6-23.7-23.7V24.7c0-13.1 10.6-23.7 23.7-23.7H482c13.1 0 23.7 10.6 23.7 23.7z" opacity="1" data-original="#9473c5" class=""></path><path fill="#ee8dc5" d="M505.7 477.3v26.6c0 3.9-3.2 7.1-7.1 7.1H13.4c-3.9 0-7.1-3.2-7.1-7.1v-26.6c0-3.9 3.2-7.1 7.1-7.1h485.3c3.8 0 7 3.2 7 7.1z" opacity="1" data-original="#ee8dc5" class=""></path><path fill="#f9f9f9" d="M351.1 470.2v16c0 2.4-2 4.4-4.4 4.4H165.2c-2.4 0-4.4-2-4.4-4.4v-16z" opacity="1" data-original="#fff9f5" class=""></path><path fill="#fec7dc" d="M465.1 174.4H333.8l-15.9 23h139.2v249.9H54.9V197.4h83.4c1-8.5 4.1-16.4 9-23H46.9c-8.3 0-15 6.7-15 15v265.9c0 8.3 6.7 15 15 15h418.2c8.3 0 15-6.7 15-15V189.4c0-8.3-6.7-15-15-15zm-154.4 23 5.4-23h-43.7c3.8 6.9 6.5 14.6 7.9 23z" opacity="1" data-original="#f4b4d9" class=""></path><path fill="#231f20" d="M188.3 338.1c-5.5-.7-13.5-7.5-8.4-13 2.2-2.3 5.8-2.3 8.1-.1.9.9 2 1.7 3.2 2.4 5.1 2.7 2.7 10.9-2.9 10.7z" opacity="1" data-original="#231f20"></path><path fill="#f9f9f9" d="m187.4 307.8-4.9 19.6c-4.4 1.5-50.3 16.9-56 18.8-15 5.1-26.6 16.9-31.5 31.9l-22.6 69.2H54.9V197.4h83.4c-1.7 10 1.3 20.7 3.2 30.8-14.6 3.4-11.6 25.5 3.6 24.5 3.7 25.5 20.2 46.5 42.3 55.1zM457.1 197.4v249.9H312.5c14.5.1 27.5-10.9 29.9-25.3l18.9-108-6.9-2c2.6-2.2 7.5-8.7 11-9.4l43.2-12.7c2.2-.7 3.8-2.8 3.8-5.1 0-3-2.6-5.5-5.7-5.3l-56.8 4.2c-5.1.4-9.6 3.4-11.8 8l-6.5 13.5-5.5-1.6-20.4 49.3c-8-7.1-50.3-18.7-60.6-22.8l.1-.1-8.5-2.9-.1.1c0-.1-4.9-19.6-4.9-19.6 22-8.6 38.5-29.6 42.2-55.2 15.3.8 18.3-21 3.5-24.5 1.8-9.4 5-21.3 2.8-30.8h30.4l-3.7 15.9 11-15.9h139.2z" opacity="1" data-original="#fff9f5" class=""></path><path fill="#feddcc" d="M274.9 241.8c-2.5 85.7-114.6 96.2-129.8 10.8-2.6-12.5 1.8-31.9 12-37.4 7.4-4.4 14.3-1.3 23-6.7 7-4.2 10.6-11.1 12.7-16.6 13.2 15 25.6 20.4 34.6 22.7 15.1 3.7 26.5-.2 36.8 8 5.8 4.7 9.5 13 10.7 19.2z" opacity="1" data-original="#feddcc" class=""></path><path fill="#445859" d="m280.2 214.6-.1.3c-11.4-55.8-65.3-65.8-97.5-39.4-18.3-.6-41 14.3-44 38.1-5.8-31.3 17.1-57.1 44-56.6 3.1-2.5 25.1-19.1 51.6-12.8 27.8 5.9 51.2 38.9 46 70.4z" opacity="1" data-original="#445859" class=""></path><path fill="#5b7882" d="M280.1 214.9c-1.3 6.7-3.9 20.2-5.3 26.9-1.1-6.1-4.9-14.6-10.7-19.1-10.3-8.3-21.7-4.3-36.8-8-8.9-2.2-21.4-7.6-34.6-22.7-13.6 36.3-42.7 2.4-48.5 49.8-1.8-9.4-3.9-18.9-5.6-28.3 3-23.8 25.8-38.7 44-38.1 32.3-26.4 86.2-16.2 97.5 39.5z" opacity="1" data-original="#5b7882" class=""></path><path fill="#ffe7dd" d="M145.1 252.6c-15.2.9-18.2-21.1-3.6-24.5 2 8.1 2.9 16.4 3.6 24.5zM287.3 240.2c0 7.2-6.1 12.9-13.2 12.4.5-3.5.8-7.1.8-10.8l2.7-13.7c5.5 1.3 9.7 6.2 9.7 12.1zM236.7 327.4c-8.4 13.1-46 13-54.2 0l4.9-19.5c13.7 5.5 30.7 5.5 44.4 0z" opacity="1" data-original="#ffd0bb" class=""></path><path fill="#0f0f0f" d="m210.8 337.3-26.4 8.9c-15 5.1-26.6 16.9-31.5 31.9l-22.6 69.2h-58L95 378.1c4.8-15 16.5-26.9 31.5-31.9 5.9-2 51.3-17.3 56-18.8 4.2 6 16.2 10.4 28.3 9.9z" opacity="1" data-original="#f6a96c" class=""></path><path fill="#000000" d="M361.4 314.1c-3.8 21.9-14.9 85.2-18.9 108-2.4 14.4-15.4 25.4-29.9 25.3H130.5l22.6-69.2c4.8-15 16.5-26.9 31.5-31.9l26.4-8.9c11.7-.5 20.6-3.4 25.8-9.9 5.8 1.9 23.3 7.9 29.3 9.9 9.5 3.6 31.9 9.2 39.8 15.8 4.8-11.4 15.6-37.6 20.4-49.3 8 2.3 27 7.8 35.1 10.2z" opacity="1" data-original="#fed2a4" class=""></path><path fill="#ffe7dd" d="M412.4 284.8c0 2.4-1.5 4.4-3.8 5.1l-43.2 12.7c-3.5.7-8.4 7.2-11 9.4l-22.9-6.7c4.4-7.9 7.1-21.1 18.3-21.6l56.8-4.2c3.2-.2 5.8 2.3 5.8 5.3z" opacity="1" data-original="#ffd0bb" class=""></path><path fill="#fec7dc" d="M277.2 230.8c-4-6.6-10.9 0-15.3 2.2-1.9-1.8-4.5-2.9-7.2-2.9H224c-3.8 0-7.1 2-9 5h-11.1c-2-3-5.3-5-9.1-5h-30.6c-2.9 0-5.5 1.1-7.4 3l-8.4-4.5c-6.7-3.6-12 6.6-5.4 10.1l10.4 5.6c-2.8 35.2 52.2 37.2 52.1 2.3h7.7c.1 35.1 55 32.9 52.1-2.4l9.7-5.5c2.9-1.7 3.8-5.2 2.2-7.9zm-83.1 16.7c0 6.9-5.6 12.6-12.6 12.6h-3.9c-6.9 0-12.6-5.7-12.6-12.6v-5.9h29.2v5.9zm59.8 0c0 6.9-5.7 12.6-12.6 12.6h-3.9c-6.9 0-12.6-5.7-12.6-12.6v-5.9H254v5.9z" opacity="1" data-original="#825bbd" class=""></path><path fill="#f9f9f9" d="M253.9 241.6v5.9c0 6.9-5.7 12.6-12.6 12.6h-3.9c-6.9 0-12.6-5.7-12.6-12.6v-5.9zM194.1 241.6v5.9c0 6.9-5.6 12.6-12.6 12.6h-3.9c-6.9 0-12.6-5.7-12.6-12.6v-5.9z" opacity="1" data-original="#fff9f5" class=""></path><path fill="#fec7dc" d="m209.6 337.4-13.5 34.4-22.2-41.5 8.6-2.9c4.2 5.8 14.7 10 27.1 10z" opacity="1" data-original="#825bbd" class=""></path><path fill="#fec7dc" d="M245.2 330.2c-.1 0-22.1 41.5-22.2 41.5l-13.5-34.4c12.2 0 22.7-4.1 27-9.9h.1l.1-.1z" opacity="1" data-original="#825bbd" class=""></path><path fill="#000000" d="M443.9 65.2 433 63.5c-.9-3.9-2.4-7.6-4.5-11l6.6-8.9c.5-.6.4-1.5-.1-2l-7.8-7.8c-.5-.5-1.4-.6-2-.2l-8.9 6.5c-3.4-2.1-7.2-3.7-11.2-4.6l-1.7-10.9c-.1-.7-.8-1.3-1.5-1.3h-11.1c-.8 0-1.4.6-1.5 1.3l-1.6 11c-3.9 1-7.6 2.5-10.9 4.6l-8.9-6.5c-.6-.4-1.5-.4-2 .2l-7.8 7.8c-.5.5-.6 1.4-.1 2l6.6 8.9c-2 3.3-3.6 7-4.5 11l-10.9 1.7c-.8.1-1.3.8-1.3 1.5v11.1c0 .8.6 1.4 1.3 1.5l11 1.6c1 3.9 2.5 7.6 4.6 10.9l-6.5 8.9c-.4.6-.4 1.5.2 2l7.8 7.8c.5.5 1.4.6 2 .1l8.9-6.6c3.2 2 6.8 3.5 10.6 4.4l1.6 11c.1.8.8 1.3 1.5 1.3H402c.8 0 1.4-.5 1.5-1.3l1.7-10.9c3.9-.9 7.6-2.4 11-4.5l8.9 6.6c.6.5 1.5.4 2-.1l7.8-7.8c.5-.5.6-1.4.2-2l-6.5-8.9c2.1-3.3 3.6-7 4.6-10.9l11-1.6c.8-.1 1.3-.8 1.3-1.5V66.8c-.3-.8-.9-1.4-1.6-1.6zm-47.4 29.4c-29.7-.9-29.7-44.1 0-45 29.7.7 29.7 44.2 0 45z" opacity="1" data-original="#fed2a4" class=""></path></g></svg>