<svg id="visual" viewBox="0 0 900 675" width="900" height="675" xmlns="http://www.w3.org/2000/svg" xmlns:xlink="http://www.w3.org/1999/xlink" version="1.1"><g transform="translate(489.62458792771497 355.9188050778486)"><path d="M137 -252C161.6 -223.2 154.4 -154.1 168.4 -105.4C182.5 -56.7 217.7 -28.3 211.5 -3.6C205.2 21.1 157.4 42.2 141.8 88.2C126.2 134.3 142.9 205.3 124.6 226.1C106.3 246.8 53.2 217.4 1 215.7C-51.2 214 -102.3 239.9 -144.5 232.9C-186.6 225.9 -219.8 186 -249.2 141.6C-278.6 97.3 -304.3 48.7 -284.5 11.4C-264.7 -25.8 -199.5 -51.7 -169.8 -95.5C-140.2 -139.4 -146.1 -201.3 -123.7 -231.4C-101.3 -261.5 -50.7 -259.8 2.8 -264.6C56.2 -269.4 112.5 -280.9 137 -252" fill="#8bda64"></path></g></svg>