<svg xmlns="http://www.w3.org/2000/svg" version="1.1" xmlns:xlink="http://www.w3.org/1999/xlink" width="512" height="512" x="0" y="0" viewBox="0 0 512 512" style="enable-background:new 0 0 512 512" xml:space="preserve" class=""><g><path fill="#e4f5ab" d="M379.687 185.048v48.663h-158.98l-28.408-24.331 28.408-24.332zM379.687 273.855v48.662h-158.98l-28.408-24.331 28.408-24.331zM379.687 362.661v48.662h-158.98l-28.408-24.331 28.408-24.331z" opacity="1" data-original="#7cc558" class=""></path><g fill="#3f3f3f"><path d="M404.234 1.738H107.766c-15.902 0-28.834 12.935-28.834 28.834v450.856c0 15.899 12.932 28.834 28.834 28.834h296.468c15.902 0 28.834-12.935 28.834-28.834V30.572c0-15.899-12.932-28.834-28.834-28.834zm13.106 479.69c0 7.226-5.877 13.106-13.106 13.106H107.766c-7.229 0-13.106-5.88-13.106-13.106V30.572c0-7.226 5.877-13.106 13.106-13.106h296.468c7.229 0 13.106 5.88 13.106 13.106z" fill="#fec7dc" opacity="1" data-original="#3f3f3f" class=""></path><path d="M167.645 54.312h-19.577a7.865 7.865 0 0 0-7.864 7.864v63.891a7.864 7.864 0 0 0 15.728 0v-24.08h11.714c13.142 0 23.837-10.692 23.837-23.837s-10.696-23.838-23.838-23.838zm0 31.946h-11.714V70.039h11.714c4.469 0 8.11 3.638 8.11 8.11s-3.64 8.109-8.11 8.109zM256.015 133.93a7.865 7.865 0 0 0 7.864-7.864v-19.15h19.823v19.15a7.864 7.864 0 0 0 15.728 0V79.953c0-14.138-11.504-25.642-25.639-25.642s-25.639 11.504-25.639 25.642v46.113a7.864 7.864 0 0 0 7.863 7.864zm17.776-63.891c5.468 0 9.912 4.446 9.912 9.914v11.235H263.88V79.953c-.001-5.467 4.443-9.914 9.911-9.914zM363.932 54.312a7.865 7.865 0 0 0-7.864 7.864v38.738l-29.955-43.217a7.863 7.863 0 0 0-14.325 4.479v63.891a7.864 7.864 0 0 0 15.728 0V87.328l29.955 43.217a7.862 7.862 0 0 0 14.325-4.479V62.175a7.863 7.863 0 0 0-7.864-7.863zM243.36 126.066a7.864 7.864 0 0 0-7.864-7.864h-23.494V62.175a7.864 7.864 0 0 0-15.728 0v63.891a7.864 7.864 0 0 0 7.864 7.864h31.358a7.865 7.865 0 0 0 7.864-7.864zM160.969 191.075l-19.931 19.928-3.164-3.164a7.863 7.863 0 1 0-11.12 11.119l8.724 8.726c3.084 3.084 8.062 3.058 11.12 0l25.491-25.491a7.86 7.86 0 0 0 0-11.12 7.862 7.862 0 0 0-11.12.002zM304.77 201.517h-74.557a7.865 7.865 0 0 0 0 15.728h74.557a7.865 7.865 0 0 0 0-15.728zM160.969 279.881l-19.931 19.928-3.164-3.164a7.863 7.863 0 1 0-11.12 11.119l8.724 8.726c3.084 3.084 8.062 3.058 11.12 0L172.089 291a7.86 7.86 0 0 0 0-11.12 7.862 7.862 0 0 0-11.12.001zM304.77 290.322h-74.557a7.865 7.865 0 0 0 0 15.728h74.557a7.865 7.865 0 0 0 0-15.728zM160.969 368.686l-19.931 19.928-3.164-3.164a7.863 7.863 0 1 0-11.12 11.119l8.724 8.726c3.084 3.084 8.062 3.058 11.12 0l25.491-25.491a7.86 7.86 0 0 0 0-11.12 7.862 7.862 0 0 0-11.12.002zM304.77 379.127h-74.557a7.865 7.865 0 0 0 0 15.728h74.557a7.865 7.865 0 0 0 0-15.728z" fill="#fec7dc" opacity="1" data-original="#3f3f3f" class=""></path></g></g></svg>