<svg xmlns="http://www.w3.org/2000/svg" version="1.1" xmlns:xlink="http://www.w3.org/1999/xlink" width="512" height="512" x="0" y="0" viewBox="0 0 256 256" style="enable-background:new 0 0 512 512" xml:space="preserve" class=""><g><path fill="#f16c7a" d="M41.554 58.774a30.7 30.7 0 0 0-7.377 19.682v.243c0 .9-1.824 3.64-4.127-8.19C22.5 79.421 16.456 89.377 16.456 98.1c0 23.235 14.165 30.42 31.634 30.42s31.633-7.185 31.633-30.42c0-8.2-2.782-14.091-6.307-19.386-2.671 3.8-6.141 6.961-6.067 6.518 1.88-11.123-2.117-15.105-6.164-25.635a32.851 32.851 0 0 1-2.011-14.492c.027-.359-1.078.182-2.953 1.438-1.475.99-2.882 1.954-4.233 2.909Z" opacity="1" data-original="#f16c7a" class=""></path><path fill="#3a312a" d="M48.09 130.023c-21.676 0-33.134-11.038-33.134-31.919 0-8.02 4.693-17.63 13.948-28.563a1.5 1.5 0 0 1 2.617.682 52.17 52.17 0 0 0 1.3 5.412 32.377 32.377 0 0 1 7.59-17.835 1.5 1.5 0 0 1 2.289 1.945 29.24 29.24 0 0 0-7.02 18.72v.242a2.393 2.393 0 0 1-2 2.408c-1.595.153-2.98-1.109-4.445-7.252-7.391 9.276-11.279 17.616-11.279 24.237 0 19.189 10.139 28.919 30.134 28.919s30.134-9.73 30.134-28.919a30.86 30.86 0 0 0-4.905-16.756 42.918 42.918 0 0 1-2.716 3.09c-2.14 2.2-2.853 2.617-3.81 2.225a1.559 1.559 0 0 1-.922-1.677c1.348-7.982-.464-12-3.208-18.084-.883-1.958-1.884-4.176-2.878-6.763a33.653 33.653 0 0 1-2.211-12.688c-.159.1-.331.217-.518.342a201.036 201.036 0 0 0-4.2 2.888 1.5 1.5 0 0 1-1.732-2.45c1.36-.961 2.777-1.932 4.263-2.929 2.667-1.786 3.593-2.114 4.5-1.58a1.582 1.582 0 0 1 .781 1.5 31.529 31.529 0 0 0 1.914 13.842c.964 2.506 1.947 4.685 2.813 6.606 2.4 5.311 4.236 9.39 3.894 15.782a37.171 37.171 0 0 0 2.9-3.6 1.547 1.547 0 0 1 1.247-.637 1.5 1.5 0 0 1 1.23.669c3.243 4.872 6.559 11.084 6.559 20.217-.001 20.888-11.459 31.926-33.135 31.926Z" opacity="1" data-original="#3a312a" class=""></path><path fill="#d7e057" d="M70.8 106.683c0 16.683-10.17 21.841-22.712 21.841s-22.712-5.158-22.712-21.841c0-6.265 4.342-13.413 9.759-19.812 1.654 8.494 2.963 6.529 2.963 5.88 0-11.629 6.172-16.6 15.828-23.084 1.346-.9 2.139-1.29 2.12-1.032a23.583 23.583 0 0 0 1.443 10.4c2.907 7.561 5.776 10.42 4.426 18.406-.053.318 2.439-1.95 4.356-4.68a23.885 23.885 0 0 1 4.529 13.922Z" opacity="1" data-original="#d7e057" class=""></path><path fill="#3a312a" d="M48.09 130.024c-15.84 0-24.212-8.071-24.212-23.34 0-5.861 3.4-12.853 10.114-20.782a1.5 1.5 0 0 1 2.617.682c.115.59.226 1.117.332 1.59 1.463-9.2 7.518-13.957 16.151-19.752 1.789-1.2 2.736-1.7 3.683-1.149a1.627 1.627 0 0 1 .768 1.475 22.219 22.219 0 0 0 1.348 9.752c.688 1.789 1.391 3.347 2.01 4.721 1.539 3.412 2.83 6.273 2.855 10.352.431-.512.872-1.078 1.289-1.672a1.619 1.619 0 0 1 1.247-.637 1.5 1.5 0 0 1 1.229.669 25.282 25.282 0 0 1 4.781 14.75c-.002 15.27-8.373 23.341-24.212 23.341Zm-13.74-39.8c-4.9 6.309-7.472 11.963-7.472 16.463 0 13.687 6.938 20.34 21.212 20.34s21.21-6.656 21.21-20.343a21.549 21.549 0 0 0-3.137-11.272c-1.5 1.868-3.534 3.972-4.808 3.448a1.541 1.541 0 0 1-.919-1.665c.947-5.6-.333-8.443-2.271-12.74-.637-1.41-1.358-3.01-2.076-4.878a24.36 24.36 0 0 1-1.611-8.477C45.216 77.339 39.6 81.985 39.6 92.751a2.124 2.124 0 0 1-1.817 2.156c-1.494.144-2.507-1.172-3.433-4.686Z" opacity="1" data-original="#3a312a" class=""></path><path fill="#d4d853" d="M226.315 30.834s3.41 12.659 13.229 13.246c0 0-13.107 4.525-13.328 14.2 0 0-2.58-13.572-12.932-14.059 0 .002 12.057-1.821 13.031-13.387Z" opacity="1" data-original="#d4d853" class=""></path><path fill="#3a312a" d="M226.215 59.781a1.5 1.5 0 0 1-1.472-1.217c-.024-.124-2.5-12.418-11.529-12.843a1.5 1.5 0 0 1-.154-2.982c.441-.068 10.9-1.816 11.761-12.031a1.5 1.5 0 0 1 2.942-.266c.032.117 3.261 11.626 11.87 12.141a1.5 1.5 0 0 1 .4 2.914c-.121.043-12.124 4.312-12.319 12.819a1.5 1.5 0 0 1-1.374 1.46c-.04.003-.083.005-.125.005Zm-7.745-15.729c3.88 1.969 6.234 5.747 7.591 8.878 2.027-4.022 5.944-6.788 8.954-8.428-4.138-1.843-6.787-5.653-8.339-8.724a16.109 16.109 0 0 1-8.206 8.274Z" opacity="1" data-original="#3a312a" class=""></path><path fill="#d4d853" d="M204.606 47.814s2.412 8.954 9.356 9.369c0 0-9.27 3.2-9.427 10.046 0 0-1.825-9.6-9.147-9.944 0 0 8.528-1.292 9.218-9.471Z" opacity="1" data-original="#d4d853" class=""></path><path fill="#3a312a" d="M204.534 68.729a1.5 1.5 0 0 1-1.472-1.22c-.016-.082-1.705-8.443-7.744-8.727a1.5 1.5 0 0 1-.154-2.981c.3-.047 7.368-1.242 7.947-8.113a1.5 1.5 0 0 1 2.942-.266c.022.079 2.229 7.92 8 8.265a1.5 1.5 0 0 1 .4 2.915c-.081.028-8.287 2.953-8.417 8.661a1.5 1.5 0 0 1-1.376 1.461 1.816 1.816 0 0 1-.126.005ZM200.013 57.2a12.817 12.817 0 0 1 4.449 5.281 15.665 15.665 0 0 1 5.368-4.973 13.4 13.4 0 0 1-4.944-5.225 11.961 11.961 0 0 1-4.873 4.917Z" opacity="1" data-original="#3a312a" class=""></path><path fill="#d4d853" d="M204.606 21.156s2.412 8.955 9.356 9.37c0 0-9.27 3.2-9.427 10.046 0 0-1.825-9.6-9.147-9.945 0 0 8.528-1.291 9.218-9.471Z" opacity="1" data-original="#d4d853" class=""></path><path fill="#3a312a" d="M204.534 42.071a1.5 1.5 0 0 1-1.472-1.219c-.016-.082-1.705-8.443-7.744-8.727a1.5 1.5 0 0 1-.154-2.981c.3-.047 7.368-1.243 7.947-8.114a1.5 1.5 0 0 1 2.942-.266c.022.079 2.229 7.92 8 8.265a1.5 1.5 0 0 1 .4 2.915c-.081.029-8.287 2.952-8.417 8.661a1.5 1.5 0 0 1-1.376 1.461 1.816 1.816 0 0 1-.126.005Zm-4.521-11.527a12.814 12.814 0 0 1 4.449 5.28 15.665 15.665 0 0 1 5.369-4.972 13.4 13.4 0 0 1-4.945-5.226 11.969 11.969 0 0 1-4.873 4.918Z" opacity="1" data-original="#3a312a" class=""></path><path fill="#fec7dc" d="M212.6 114.06c-15.274-22.626-44.269-52.944-62.38-71.746a5.962 5.962 0 0 0-1.593-1.178l-41.06-20.9a4 4 0 0 0-5.164 1.377L90.31 40.12a5 5 0 0 0 1.031 6.614l4.959 4.031-1.458 5.015a5 5 0 0 0 4 6.33l14.14 2.287a7 7 0 0 0 3.022-.174l17.3-4.892c22.361 38.336 7.2 61.58 21.976 91.634-19.482-13.6-39.481-8.151-47.769 1.743-9.965-7.794-23.271-12.817-38.051-13.4-32.091-1.255-47.23 19.326-48.251 45.427s12.463 47.838 44.554 49.094a66.232 66.232 0 0 0 38.205-9.879 92.867 92.867 0 0 0 31.369 6.548c49.85 1.87 89.6-38.262 95.147-44.862 13.877-16.513 2.44-41.467-17.884-71.576Z" opacity="1" data-original="#f8e4c8" class=""></path><path fill="#deadd5" d="M211.356 114.9c-15.7-23.252-45.96-54.668-62.218-71.545a4.442 4.442 0 0 0-1.192-.882l-41.061-20.9a2.5 2.5 0 0 0-3.227.861l-2.238 3.426 31.536 16.054a4.444 4.444 0 0 1 1.193.881c16.258 16.878 46.521 48.293 62.217 71.546 17.726 26.256 32.172 52.882 17.985 69.776-9.562 11.384-44.941 42.385-86.727 44.278 2.571.306 5.167.514 7.774.612 44.88 1.684 83.835-32.293 93.942-44.328 14.188-16.897-.259-43.522-17.984-69.779Z" opacity="1" data-original="#decaad" class=""></path><path fill="#3a312a" d="M213.842 113.222C198 89.756 167.621 58.217 151.3 41.274a7.5 7.5 0 0 0-1.992-1.475l-41.06-20.9a5.5 5.5 0 0 0-7.1 1.893L89.055 39.3a6.482 6.482 0 0 0 1.34 8.6l4.185 3.4-1.18 4.062a6.5 6.5 0 0 0 5.2 8.229l14.14 2.287a8.568 8.568 0 0 0 3.67-.212l16.178-4.574c9.681 16.989 11.89 31.034 12.818 43.691a1.5 1.5 0 1 0 2.992-.219c-.972-13.266-3.317-28.02-13.8-45.989a1.5 1.5 0 0 0-1.7-.687l-17.3 4.891a5.529 5.529 0 0 1-2.373.138L99.084 60.63a3.5 3.5 0 0 1-2.8-4.432l1.02-3.514 5.186 1.736a6.453 6.453 0 0 0 2.048.332 6.54 6.54 0 0 0 4.187-1.511l1.36-1.137a6.5 6.5 0 0 0-.307-10.212l-3.429-2.536a1.5 1.5 0 0 0-1.783 2.413l3.429 2.535a3.5 3.5 0 0 1 .165 5.5l-1.36 1.136a3.51 3.51 0 0 1-3.357.634l-6.408-2.146-4.745-3.859a3.491 3.491 0 0 1-.721-4.629l12.092-18.509a2.494 2.494 0 0 1 3.227-.86l41.059 20.9a4.5 4.5 0 0 1 1.2.883c16.253 16.879 46.514 48.295 62.209 71.546 17.725 26.258 32.172 52.884 17.985 69.777-10.108 12.034-49.032 46.034-93.941 44.323a91.891 91.891 0 0 1-30.859-6.439 1.5 1.5 0 0 0-1.374.126c-10.545 6.748-23.8 10.186-37.339 9.644-28.118-1.1-44.235-18.871-43.113-47.537.518-13.255 4.688-24.318 12.058-31.991 8.2-8.537 19.849-12.574 34.636-11.994 13.89.542 27.093 5.186 37.18 13.073l7.64 6.416a1.5 1.5 0 1 0 1.929-2.3l-6.479-5.44c7.925-8.109 26.03-13.265 44.487-.545a79.891 79.891 0 0 0 4.778 6.59 1.5 1.5 0 0 0 2.343-1.875 73.618 73.618 0 0 1-4.67-6.467c-5.1-10.387-6.636-20.042-7.372-31.339a1.5 1.5 0 1 0-2.994.195c.652 10.01 1.922 18.786 5.636 27.926-18.655-10.526-36.5-4.791-44.561 3.626a68.068 68.068 0 0 0-37.8-12.862c-15.457-.614-28.223 3.862-36.918 12.915-7.885 8.211-12.343 19.952-12.891 33.952s2.979 26.062 10.2 34.874c7.962 9.716 20.339 15.173 35.8 15.778q1.422.056 2.838.056a67.811 67.811 0 0 0 35.578-9.756A95.249 95.249 0 0 0 135.286 232c1.18.044 2.348.065 3.514.065 53.137 0 92.448-45 92.838-45.462 15.462-18.414.587-46.151-17.796-73.381Z" opacity="1" data-original="#3a312a" class=""></path></g></svg>